<svg xmlns="http://www.w3.org/2000/svg" width="32" height="32" viewBox="0 0 32 32">
  <!-- Background -->
  <rect width="32" height="32" rx="6" fill="#1A2B4A"/>

  <!-- Baseline -->
  <line x1="3" y1="24" x2="29" y2="24" stroke="#4A7FBF" stroke-width="0.8" opacity="0.6"/>

  <!-- Peak fills -->
  <path d="M8.5,24 L9,12 L9.5,24 Z" fill="#4A9FBF" opacity="0.35"/>
  <path d="M14.3,24 L15,13 L15.7,24 Z" fill="#4A9FBF" opacity="0.35"/>
  <path d="M19.2,24 L20,7 L20.8,24 Z" fill="#5AB0CF" opacity="0.45"/>
  <path d="M23.2,24 L23.5,21 L23.8,24 Z" fill="#4A9FBF" opacity="0.25"/>

  <!-- Spectrum curve -->
  <path d="M3,24 L5,24 L5.5,23.5 L6,24 L7,24 L7.5,23 L8,22 L8.5,17 L9,12 L9.5,17 L10,22 L10.5,23 L11,24 L12,24 L12.3,23 L12.6,24 L13,24 L13.5,23.5 L14,22.5 L14.3,20 L14.6,16 L15,13 L15.4,16 L15.7,20 L16,22.5 L16.5,23.5 L17,24 L18,24 L18.2,23.5 L18.5,22 L18.8,19.5 L19.2,15 L19.6,10 L20,7 L20.4,10 L20.8,15 L21.2,19.5 L21.5,22 L21.8,23.5 L22,24 L23,24 L23.2,23 L23.5,21 L23.8,23 L24,24 L29,24"
    fill="none" stroke="#7EC8E3" stroke-width="1.2" stroke-linejoin="round" stroke-linecap="round"/>

  <!-- Q letter -->
  <text x="3.5" y="10.5" font-family="Georgia, serif" font-size="8" font-weight="700" fill="#FFFFFF" opacity="0.95">Q</text>

  <!-- X cross mark top-right -->
  <line x1="24.5" y1="4" x2="29" y2="8.5" stroke="#7EC8E3" stroke-width="1.3" stroke-linecap="round" opacity="0.8"/>
  <line x1="29" y1="4" x2="24.5" y2="8.5" stroke="#7EC8E3" stroke-width="1.3" stroke-linecap="round" opacity="0.8"/>
</svg>
